<svg xmlns="http://www.w3.org/2000/svg" width="410" height="404" viewBox="0 0 410 404" fill="none">
  <path d="M399.641 59.5244C386.429 6.09547 335.347 -10.4816 292.71 7.56182L64.387 104.667C18.4065 124.434 -4.35016 175.478 9.20367 223.444L53.3204 379.07C67.001 427.035 117.255 454.78 166.165 440.91L343.732 389.189C392.643 375.319 423.26 322.654 410.049 269.225L399.641 59.5244Z" fill="url(#paint0_linear)"/>
  <path d="M297.507 79.7428L208.355 322.741C206.648 327.313 200.287 327.313 198.58 322.741L152.298 201.909C151.781 200.597 150.875 199.487 149.718 198.716C148.561 197.945 147.209 197.548 145.833 197.573L88.1668 198.66C84.1529 198.731 82.4881 193.604 85.6454 191.222L277.168 51.0994C280.325 48.7178 284.9 51.7729 283.802 55.6735L266.837 115.699C266.553 116.691 266.535 117.744 266.783 118.745C267.031 119.746 267.536 120.655 268.253 121.38C268.969 122.105 269.873 122.621 270.863 122.872C271.853 123.123 272.892 123.1 273.869 122.807L321.104 108.53C324.607 107.483 327.685 111.284 326.372 114.676L303.121 75.7564C302.474 74.0005 300.151 73.3317 297.507 79.7428Z" fill="url(#paint1_linear)"/>
  <defs>
    <linearGradient id="paint0_linear" x1="97.735" y1="14.4616" x2="358.629" y2="394.033" gradientUnits="userSpaceOnUse">
      <stop stop-color="#41D1FF"/>
      <stop offset="1" stop-color="#BD34FE"/>
    </linearGradient>
    <linearGradient id="paint1_linear" x1="175.332" y1="62.1981" x2="293.612" y2="312.264" gradientUnits="userSpaceOnUse">
      <stop stop-color="#FFEA83"/>
      <stop offset="0.0833333" stop-color="#FFDD35"/>
      <stop offset="1" stop-color="#FFA800"/>
    </linearGradient>
  </defs>
</svg>
